<svg xmlns="http://www.w3.org/2000/svg" xmlns:svg="http://www.w3.org/2000/svg" id="svg11" width="1150" height="1150" x="0" y="0" preserveAspectRatio="xMinYMin meet" version="1.1" viewBox="0 0 1150 1150"><metadata id="metadata17"/><g id="Layer_1" transform="translate(0,304.7)" style="fill:#000"><path id="path2" d="m 880.199,2.8 c 147.901,0 267.701,119.8 267.701,267.7 0,147.8 -119.8,267.7 -267.7,267.7 H 290.1 c -21.1,0 -38.2,-17.1 -38.2,-38.2 0,-21.1 17.1,-38.2 38.2,-38.2 h 137.5 c 21,0 38.1,-17.1 38.1,-38.2 0,-21.1 -17.1,-38.2 -38.1,-38.2 H 396.999 C 375.9,385.4 358.8,368.3 358.8,347.2 358.8,326.1 375.9,309 397,309 h 91.703 c 21.215,-0.059 37.67,-17.35 38.197,-38.2 0,-21.1 -17.1,-38.2 -38.2,-38.2 H 167.8 c -21.1,0 -38.2,-17.1 -38.2,-38.2 0,-21.1 17.1,-38.2 38.2,-38.2 h 236.804 c 21.214,-0.059 37.669,-17.35 38.196,-38.2 0,-21.1 -17.1,-38.2 -38.2,-38.2 H 351.2 C 330.1,79.8 313,62.7 313,41.6 313,20.5 330.1,2.4 351.2,2.4 Z M 837.4,92 v 0 c -82.2,0 -148.7,66.6 -148.7,148.7 v 59.5 c 0,82.2 66.5,148.7 148.7,148.7 82.1,0 148.7,-66.5 148.7,-148.7 V 240.7 C 986.1,158.6 919.5,92 837.4,92 Z m 50.8,140.6 c 19.8,0 35.9,16.1 35.9,35.9 v 4.6 c 0,19.8 -16.1,35.9 -35.9,35.9 H 776.6 c -19.8,0 -35.9,-16.1 -35.9,-35.9 v -4.6 c 0,-19.8 16.1,-35.9 35.9,-35.9 z"/><path id="path4" d="m 170.1,461.8 c 19.9,0 35.9,16 35.9,35.9 v 4.6 c 0,19.8 -16,35.9 -35.9,35.9 H 38 C 18.2,538.2 2.1,522.1 2.1,502.3 v -4.6 c 0,-19.9 16.1,-35.9 35.9,-35.9 z"/><path id="path6" d="m 231.3,3.4 c 19.8,0 35.8,16.1 35.8,35.9 V 44 c 0,19.8 -16,35.8 -35.8,35.8 H 83.8 C 64,79.8 47.9,63.8 47.9,44 V 39.3 C 47.9,19.5 64,3.4 83.8,3.4 Z"/><path id="path8" d="m 277.1,309 c 19.8,0 35.9,16.1 35.9,35.9 v 4.6 c 0,19.8 -16.1,35.9 -35.9,35.9 h -81 c -19.8,0 -35.9,-16.1 -35.9,-35.9 v -4.6 c 0,-19.8 16.1,-35.9 35.9,-35.9 z"/></g></svg>